<svg xmlns="http://www.w3.org/2000/svg" width="34.331" height="34.332" viewBox="0 0 34.331 34.332">
  <g id="Group_520" data-name="Group 520" transform="translate(-5.242 -4.03)">
    <g id="Group_519" data-name="Group 519" transform="translate(5 5)">
      <path id="Path_481" data-name="Path 481" d="M36.21,19.044V12.8a2.6,2.6,0,0,0-2.6-2.6H14.3a2.7,2.7,0,0,0-1.727.624L9.016,13.947a2.608,2.608,0,0,0,0,3.932L12.574,21a2.612,2.612,0,0,0,1.727.645H33.609A2.615,2.615,0,0,0,36.21,19.044ZM10.535,23.331,6.956,20.21a5.7,5.7,0,0,1,0-8.593L10.535,8.5A5.681,5.681,0,0,1,14.3,7.08h8.042v-.52a1.561,1.561,0,0,1,3.121,0v.52h8.146A5.719,5.719,0,0,1,39.331,12.8v6.242a5.746,5.746,0,0,1-5.722,5.722H25.463v13a1.561,1.561,0,0,1-3.121,0v-13H14.3A5.7,5.7,0,0,1,10.535,23.331Z" transform="translate(-4.758 -5.97)" fill="#4d94e8"/>
    </g>
  </g>
</svg>
