<svg id="v.1" xmlns="http://www.w3.org/2000/svg" width="240.881" height="49" viewBox="0 0 240.881 49">
  <path id="Path_198" data-name="Path 198" d="M22.3,6.607,4.7,24.205A2.753,2.753,0,0,1,.806,20.312L20.272.847A2.741,2.741,0,0,1,21.381.17a2.753,2.753,0,0,1,2.9.636L35.236,11.76V9.635a2.753,2.753,0,0,1,5.506,0v7.631l3.006,3.006a2.753,2.753,0,0,1-3.893,3.893Z" transform="translate(0 0)" fill="#4d84ed" fill-rule="evenodd"/>
  <path id="Path_199" data-name="Path 199" d="M45.573,85.14A2.793,2.793,0,0,0,42.264,87.3l-.352,1.671a2.817,2.817,0,0,0-.053.371,12.943,12.943,0,0,1-24.63-.018,2.808,2.808,0,0,0-.051-.353L16.826,87.3a2.793,2.793,0,0,0-5.465,1.152l.1.481H11.45q.092.465.206.922l.056.268a2.812,2.812,0,0,0,.151.491,18.451,18.451,0,0,0,35.378-.038,2.822,2.822,0,0,0,.136-.453l.036-.173q.129-.5.23-1.017h-.016l.1-.481A2.792,2.792,0,0,0,45.573,85.14Z" transform="translate(-7.278 -54.795)" fill="#ecad50" fill-rule="evenodd"/>
  <rect id="Rectangle_473" data-name="Rectangle 473" width="7.879" height="7.879" rx="3.94" transform="translate(12.465 21.064)" fill="#ea5a73"/>
  <rect id="Rectangle_474" data-name="Rectangle 474" width="7.879" height="7.879" rx="3.94" transform="translate(24.646 21.064)" fill="#ea5a73"/>
  <path id="Path_200" data-name="Path 200" d="M159.483,58.485a.849.849,0,0,1-.854-.854V34.477a.95.95,0,0,1,.213-.64.867.867,0,0,1,.64-.249h3.237a.753.753,0,0,1,.6.249.867.867,0,0,1,.249.64v9.176h10.492V34.477a.949.949,0,0,1,.214-.64.866.866,0,0,1,.64-.249h3.2a.853.853,0,0,1,.889.889V57.632a.867.867,0,0,1-.249.64.949.949,0,0,1-.64.213h-3.2a.85.85,0,0,1-.854-.854V48.1H163.573v9.532a.824.824,0,0,1-.249.6.754.754,0,0,1-.6.249Z" transform="translate(-102.165 -21.632)"/>
  <path id="Path_201" data-name="Path 201" d="M233.407,69.781a7.826,7.826,0,0,1-3.343-.712,6.359,6.359,0,0,1-2.383-1.992,4.741,4.741,0,0,1-.854-2.739,4.693,4.693,0,0,1,1.956-3.912,11.744,11.744,0,0,1,5.371-2.027l4.873-.711v-.747a3.188,3.188,0,0,0-.782-2.347,3.463,3.463,0,0,0-2.525-.782,3.6,3.6,0,0,0-1.921.462,5.924,5.924,0,0,0-1.138.854q-.427.462-.569.6a.538.538,0,0,1-.534.427h-2.739a.85.85,0,0,1-.569-.213.769.769,0,0,1-.213-.569,3.9,3.9,0,0,1,.854-2.027,6.739,6.739,0,0,1,2.6-1.956,10,10,0,0,1,4.268-.818q4.2,0,6.117,1.885a6.618,6.618,0,0,1,1.921,4.944V68.572a.824.824,0,0,1-.249.6.753.753,0,0,1-.6.249h-2.881a.85.85,0,0,1-.854-.854V67.185a5.917,5.917,0,0,1-2.241,1.885A7.915,7.915,0,0,1,233.407,69.781Zm1.209-3.379a4.269,4.269,0,0,0,3.2-1.28,5.147,5.147,0,0,0,1.245-3.735V60.64l-3.557.569a7.911,7.911,0,0,0-3.13,1.031,2.077,2.077,0,0,0-1.032,1.743,2.024,2.024,0,0,0,.96,1.778A4.072,4.072,0,0,0,234.616,66.4Z" transform="translate(-146.087 -32.573)"/>
  <path id="Path_202" data-name="Path 202" d="M288.263,76.183a.825.825,0,0,1-.6-.249.754.754,0,0,1-.249-.6V51.784a.753.753,0,0,1,.249-.6.824.824,0,0,1,.6-.249h2.81a.85.85,0,0,1,.854.854v1.423a6.71,6.71,0,0,1,5.691-2.632,6.811,6.811,0,0,1,5.513,2.276,9.61,9.61,0,0,1,2.063,6.082q.035.427.036,1.245,0,.854-.036,1.28A9.762,9.762,0,0,1,303.13,67.5a6.811,6.811,0,0,1-5.513,2.276,6.414,6.414,0,0,1-5.477-2.525V75.33a.85.85,0,0,1-.854.854ZM296.3,65.975q3.842,0,4.09-4.73.036-.356.036-1.067t-.036-1.067q-.249-4.73-4.09-4.73a3.59,3.59,0,0,0-3.059,1.316,5.761,5.761,0,0,0-1.1,3.237l-.036,1.352.036,1.387a5.063,5.063,0,0,0,1.1,3.059A3.808,3.808,0,0,0,296.3,65.975Z" transform="translate(-185.105 -32.573)"/>
  <path id="Path_203" data-name="Path 203" d="M349.641,76.183a.824.824,0,0,1-.6-.249.754.754,0,0,1-.249-.6V51.784a.753.753,0,0,1,.249-.6.823.823,0,0,1,.6-.249h2.81a.85.85,0,0,1,.854.854v1.423a6.71,6.71,0,0,1,5.691-2.632,6.811,6.811,0,0,1,5.513,2.276,9.61,9.61,0,0,1,2.063,6.082q.035.427.036,1.245,0,.854-.036,1.28a9.761,9.761,0,0,1-2.063,6.046,6.811,6.811,0,0,1-5.513,2.276,6.414,6.414,0,0,1-5.477-2.525V75.33a.85.85,0,0,1-.854.854Zm8.038-10.208q3.842,0,4.09-4.73.036-.356.036-1.067t-.036-1.067q-.249-4.73-4.09-4.73A3.589,3.589,0,0,0,354.62,55.7a5.76,5.76,0,0,0-1.1,3.237l-.036,1.352.036,1.387a5.061,5.061,0,0,0,1.1,3.059A3.807,3.807,0,0,0,357.679,65.975Z" transform="translate(-224.636 -32.573)"/>
  <path id="Path_204" data-name="Path 204" d="M408.687,76.827a.73.73,0,0,1-.711-.712,1.127,1.127,0,0,1,.142-.569l2.774-6.58-6.829-16.112a1.342,1.342,0,0,1-.142-.5.868.868,0,0,1,.249-.534.675.675,0,0,1,.534-.249h2.881a.983.983,0,0,1,.96.676l4.73,11.631,4.873-11.631a.983.983,0,0,1,.96-.676h2.845a.682.682,0,0,1,.5.213.639.639,0,0,1,.249.5,1.426,1.426,0,0,1-.142.569l-10.066,23.3a1.048,1.048,0,0,1-1,.676Z" transform="translate(-260.145 -33.216)"/>
  <path id="Path_205" data-name="Path 205" d="M472.434,58.2a13.962,13.962,0,0,1-5.442-.96,8.141,8.141,0,0,1-3.45-2.525,5.923,5.923,0,0,1-1.245-3.379.73.73,0,0,1,.747-.747h3.165a.981.981,0,0,1,.64.178,1.357,1.357,0,0,1,.462.5,3.625,3.625,0,0,0,1.636,2.027,6.425,6.425,0,0,0,3.485.818,7.148,7.148,0,0,0,3.806-.818,2.677,2.677,0,0,0,1.28-2.347,2.154,2.154,0,0,0-.676-1.636,5.179,5.179,0,0,0-1.956-1.1q-1.281-.462-3.841-1.138a15.148,15.148,0,0,1-6.153-2.632,5.935,5.935,0,0,1-1.92-4.73,6.3,6.3,0,0,1,1.1-3.663,7.629,7.629,0,0,1,3.237-2.525,12.343,12.343,0,0,1,4.944-.925,11.5,11.5,0,0,1,5.051,1.031,8.217,8.217,0,0,1,3.237,2.6,5.555,5.555,0,0,1,1.209,3.059.729.729,0,0,1-.747.747H477.7a1.031,1.031,0,0,1-1.031-.676,2.826,2.826,0,0,0-1.423-1.885,5.389,5.389,0,0,0-2.988-.782,5.659,5.659,0,0,0-3.13.747,2.436,2.436,0,0,0-1.138,2.17,2.372,2.372,0,0,0,.569,1.636,4.8,4.8,0,0,0,1.779,1.138,31.769,31.769,0,0,0,3.557,1.1,24.147,24.147,0,0,1,4.979,1.6,6.55,6.55,0,0,1,2.774,2.241,6.162,6.162,0,0,1,.889,3.45,6.456,6.456,0,0,1-1.28,3.984,7.777,7.777,0,0,1-3.557,2.561A14.406,14.406,0,0,1,472.434,58.2Z" transform="translate(-297.741 -20.989)"/>
  <path id="Path_206" data-name="Path 206" d="M534.546,57.842a6.529,6.529,0,0,1-4.873-1.672,7.024,7.024,0,0,1-1.6-4.979V43.117h-2.81a.824.824,0,0,1-.6-.249.947.947,0,0,1-.249-.64V40.2a.85.85,0,0,1,.854-.854h2.81v-5.9a.753.753,0,0,1,.249-.6.824.824,0,0,1,.6-.249h2.881a.85.85,0,0,1,.854.854v5.9h4.446a.85.85,0,0,1,.854.854v2.027a.867.867,0,0,1-.249.64.824.824,0,0,1-.6.249h-4.446v7.718a4.112,4.112,0,0,0,.534,2.312,2,2,0,0,0,1.778.782h2.454a.85.85,0,0,1,.854.854v2.205a.824.824,0,0,1-.249.6.753.753,0,0,1-.6.249Z" transform="translate(-337.744 -20.989)"/>
  <path id="Path_207" data-name="Path 207" d="M575.425,69.781a7.826,7.826,0,0,1-3.344-.712,6.361,6.361,0,0,1-2.383-1.992,4.741,4.741,0,0,1-.854-2.739,4.693,4.693,0,0,1,1.956-3.912,11.744,11.744,0,0,1,5.371-2.027l4.873-.711v-.747a3.187,3.187,0,0,0-.782-2.347,3.463,3.463,0,0,0-2.525-.782,3.6,3.6,0,0,0-1.921.462,5.922,5.922,0,0,0-1.138.854q-.427.462-.569.6a.538.538,0,0,1-.534.427h-2.739a.849.849,0,0,1-.569-.213.769.769,0,0,1-.213-.569,3.9,3.9,0,0,1,.854-2.027,6.738,6.738,0,0,1,2.6-1.956,10,10,0,0,1,4.268-.818q4.2,0,6.117,1.885a6.618,6.618,0,0,1,1.921,4.944V68.572a.824.824,0,0,1-.249.6.753.753,0,0,1-.6.249h-2.881a.85.85,0,0,1-.854-.854V67.185a5.918,5.918,0,0,1-2.241,1.885A7.914,7.914,0,0,1,575.425,69.781Zm1.209-3.379a4.269,4.269,0,0,0,3.2-1.28,5.147,5.147,0,0,0,1.245-3.735V60.64l-3.557.569a7.911,7.911,0,0,0-3.13,1.031,2.077,2.077,0,0,0-1.032,1.743,2.024,2.024,0,0,0,.96,1.778A4.073,4.073,0,0,0,576.634,66.4Z" transform="translate(-366.363 -32.573)"/>
  <path id="Path_208" data-name="Path 208" d="M628.73,76.827a.73.73,0,0,1-.711-.712,1.127,1.127,0,0,1,.142-.569l2.774-6.58-6.829-16.112a1.343,1.343,0,0,1-.142-.5.867.867,0,0,1,.249-.534.674.674,0,0,1,.534-.249h2.881a.983.983,0,0,1,.96.676l4.73,11.631,4.873-11.631a.983.983,0,0,1,.96-.676H642a.682.682,0,0,1,.5.213.639.639,0,0,1,.249.5,1.432,1.432,0,0,1-.142.569l-10.066,23.3a1.048,1.048,0,0,1-1,.676Z" transform="translate(-401.863 -33.216)"/>
</svg>
