<svg id="Logo" xmlns="http://www.w3.org/2000/svg" width="160.513" height="32.652" viewBox="0 0 160.513 32.652">
  <path id="Path_198" data-name="Path 198" d="M14.858,4.4,3.131,16.129A1.834,1.834,0,0,1,.537,13.535L13.508.564a1.826,1.826,0,0,1,.74-.451,1.835,1.835,0,0,1,1.933.424l7.3,7.3V6.42a1.834,1.834,0,0,1,3.669,0V11.5l2,2A1.834,1.834,0,0,1,26.558,16.1Z" transform="translate(0 0)" fill="#4d84ed" fill-rule="evenodd"/>
  <path id="Path_199" data-name="Path 199" d="M34.138,85.12a1.861,1.861,0,0,0-2.2,1.437L31.7,87.67a1.877,1.877,0,0,0-.035.247,8.625,8.625,0,0,1-16.412-.012,1.871,1.871,0,0,0-.034-.235l-.235-1.114a1.861,1.861,0,0,0-3.642.768l.068.321H11.4q.061.31.137.614l.038.178a1.874,1.874,0,0,0,.1.327A12.295,12.295,0,0,0,35.25,88.74a1.88,1.88,0,0,0,.091-.3l.024-.115q.086-.335.153-.678h-.011l.068-.321A1.861,1.861,0,0,0,34.138,85.12Z" transform="translate(-8.62 -64.899)" fill="#ecad50" fill-rule="evenodd"/>
  <rect id="Rectangle_473" data-name="Rectangle 473" width="5.25" height="5.25" rx="2.625" transform="translate(8.306 14.036)" fill="#ea5a73"/>
  <rect id="Rectangle_474" data-name="Rectangle 474" width="5.25" height="5.25" rx="2.625" transform="translate(16.423 14.036)" fill="#ea5a73"/>
  <path id="Path_200" data-name="Path 200" d="M159.2,50.178a.566.566,0,0,1-.569-.569V34.181a.633.633,0,0,1,.142-.427.578.578,0,0,1,.427-.166h2.157a.5.5,0,0,1,.4.166.578.578,0,0,1,.166.427V40.3h6.992V34.181a.632.632,0,0,1,.142-.427.577.577,0,0,1,.426-.166h2.133a.568.568,0,0,1,.592.593V49.61a.578.578,0,0,1-.166.427.632.632,0,0,1-.427.142h-2.133a.566.566,0,0,1-.569-.569V43.258h-6.992V49.61a.549.549,0,0,1-.166.4.5.5,0,0,1-.4.166Z" transform="translate(-121.003 -25.621)"/>
  <path id="Path_201" data-name="Path 201" d="M231.212,63.373a5.215,5.215,0,0,1-2.228-.474,4.238,4.238,0,0,1-1.588-1.327,3.159,3.159,0,0,1-.569-1.825,3.127,3.127,0,0,1,1.3-2.607,7.826,7.826,0,0,1,3.579-1.351l3.247-.474v-.5a2.124,2.124,0,0,0-.521-1.564,2.308,2.308,0,0,0-1.683-.521,2.4,2.4,0,0,0-1.28.308,3.948,3.948,0,0,0-.759.569q-.284.308-.379.4a.358.358,0,0,1-.356.284h-1.825a.566.566,0,0,1-.379-.142.512.512,0,0,1-.142-.379,2.6,2.6,0,0,1,.569-1.351,4.491,4.491,0,0,1,1.73-1.3,6.666,6.666,0,0,1,2.844-.545,5.647,5.647,0,0,1,4.076,1.256,4.41,4.41,0,0,1,1.28,3.294v7.442a.549.549,0,0,1-.166.4.5.5,0,0,1-.4.166h-1.92a.566.566,0,0,1-.569-.569v-.924a3.943,3.943,0,0,1-1.493,1.256A5.274,5.274,0,0,1,231.212,63.373Zm.806-2.252a2.845,2.845,0,0,0,2.133-.853,3.43,3.43,0,0,0,.829-2.489v-.5l-2.37.379a5.271,5.271,0,0,0-2.086.687,1.384,1.384,0,0,0-.687,1.161,1.349,1.349,0,0,0,.64,1.185A2.714,2.714,0,0,0,232.017,61.122Z" transform="translate(-173.025 -38.579)"/>
  <path id="Path_202" data-name="Path 202" d="M287.978,67.639a.549.549,0,0,1-.4-.166.5.5,0,0,1-.166-.4V51.381a.5.5,0,0,1,.166-.4.549.549,0,0,1,.4-.166h1.872a.567.567,0,0,1,.569.569v.948a4.471,4.471,0,0,1,3.792-1.754,4.538,4.538,0,0,1,3.674,1.517,6.4,6.4,0,0,1,1.375,4.053q.023.284.024.83,0,.569-.024.853a6.505,6.505,0,0,1-1.375,4.029,4.538,4.538,0,0,1-3.674,1.517,4.274,4.274,0,0,1-3.65-1.683v5.38a.566.566,0,0,1-.569.569Zm5.356-6.8q2.56,0,2.726-3.152.024-.237.024-.711t-.024-.711q-.166-3.152-2.726-3.152a2.392,2.392,0,0,0-2.038.877,3.839,3.839,0,0,0-.735,2.157l-.024.9.024.924a3.373,3.373,0,0,0,.735,2.038A2.537,2.537,0,0,0,293.334,60.837Z" transform="translate(-219.238 -38.579)"/>
  <path id="Path_203" data-name="Path 203" d="M349.356,67.639a.549.549,0,0,1-.4-.166.5.5,0,0,1-.166-.4V51.381a.5.5,0,0,1,.166-.4.549.549,0,0,1,.4-.166h1.872a.567.567,0,0,1,.569.569v.948a4.471,4.471,0,0,1,3.792-1.754,4.539,4.539,0,0,1,3.674,1.517,6.4,6.4,0,0,1,1.375,4.053q.023.284.024.83,0,.569-.024.853a6.5,6.5,0,0,1-1.375,4.029,4.539,4.539,0,0,1-3.674,1.517,4.274,4.274,0,0,1-3.65-1.683v5.38a.566.566,0,0,1-.569.569Zm5.356-6.8q2.56,0,2.726-3.152.024-.237.024-.711t-.024-.711q-.166-3.152-2.726-3.152a2.392,2.392,0,0,0-2.038.877,3.838,3.838,0,0,0-.735,2.157l-.024.9.024.924a3.372,3.372,0,0,0,.735,2.038A2.537,2.537,0,0,0,354.712,60.837Z" transform="translate(-266.057 -38.579)"/>
  <path id="Path_204" data-name="Path 204" d="M407.1,68.4a.487.487,0,0,1-.474-.474.751.751,0,0,1,.095-.379l1.849-4.384-4.55-10.736a.894.894,0,0,1-.095-.332.578.578,0,0,1,.166-.356.45.45,0,0,1,.356-.166h1.92a.655.655,0,0,1,.64.45l3.152,7.75,3.247-7.75a.655.655,0,0,1,.64-.45h1.9a.454.454,0,0,1,.332.142.426.426,0,0,1,.166.332.949.949,0,0,1-.095.379l-6.707,15.524a.7.7,0,0,1-.664.45Z" transform="translate(-308.114 -39.341)"/>
  <path id="Path_205" data-name="Path 205" d="M469.052,49.653a9.3,9.3,0,0,1-3.626-.64,5.424,5.424,0,0,1-2.3-1.683,3.948,3.948,0,0,1-.829-2.252.486.486,0,0,1,.5-.5H464.9a.654.654,0,0,1,.427.118.9.9,0,0,1,.308.332,2.415,2.415,0,0,0,1.09,1.351,4.282,4.282,0,0,0,2.323.545,4.763,4.763,0,0,0,2.536-.545,1.784,1.784,0,0,0,.853-1.564,1.436,1.436,0,0,0-.45-1.09,3.451,3.451,0,0,0-1.3-.735q-.854-.308-2.56-.758a10.094,10.094,0,0,1-4.1-1.754,3.955,3.955,0,0,1-1.28-3.152,4.2,4.2,0,0,1,.735-2.441,5.083,5.083,0,0,1,2.157-1.683,8.224,8.224,0,0,1,3.294-.616,7.66,7.66,0,0,1,3.366.687,5.476,5.476,0,0,1,2.157,1.73,3.7,3.7,0,0,1,.806,2.038.486.486,0,0,1-.5.5h-2.2a.687.687,0,0,1-.687-.45,1.883,1.883,0,0,0-.948-1.256,3.591,3.591,0,0,0-1.991-.521,3.771,3.771,0,0,0-2.086.5,1.623,1.623,0,0,0-.758,1.446,1.581,1.581,0,0,0,.379,1.09,3.2,3.2,0,0,0,1.185.758,21.167,21.167,0,0,0,2.37.735,16.092,16.092,0,0,1,3.318,1.067A4.364,4.364,0,0,1,475.19,42.4a4.107,4.107,0,0,1,.592,2.3,4.3,4.3,0,0,1-.853,2.654,5.182,5.182,0,0,1-2.37,1.707A9.6,9.6,0,0,1,469.052,49.653Z" transform="translate(-352.644 -24.859)"/>
  <path id="Path_206" data-name="Path 206" d="M531.164,49.416a4.35,4.35,0,0,1-3.247-1.114,4.681,4.681,0,0,1-1.066-3.318V39.6h-1.872a.549.549,0,0,1-.4-.166.631.631,0,0,1-.166-.427V37.661a.566.566,0,0,1,.569-.569h1.872V33.158a.5.5,0,0,1,.166-.4.549.549,0,0,1,.4-.166h1.92a.567.567,0,0,1,.569.569v3.934h2.963a.566.566,0,0,1,.569.569v1.351a.577.577,0,0,1-.166.427.549.549,0,0,1-.4.166h-2.963v5.143a2.739,2.739,0,0,0,.356,1.541,1.329,1.329,0,0,0,1.185.521h1.635a.566.566,0,0,1,.569.569v1.469a.549.549,0,0,1-.166.4.5.5,0,0,1-.4.166Z" transform="translate(-400.023 -24.859)"/>
  <path id="Path_207" data-name="Path 207" d="M573.23,63.373A5.216,5.216,0,0,1,571,62.9a4.238,4.238,0,0,1-1.588-1.327,3.159,3.159,0,0,1-.569-1.825,3.127,3.127,0,0,1,1.3-2.607,7.826,7.826,0,0,1,3.579-1.351l3.247-.474v-.5a2.124,2.124,0,0,0-.521-1.564,2.308,2.308,0,0,0-1.683-.521,2.4,2.4,0,0,0-1.28.308,3.943,3.943,0,0,0-.759.569q-.284.308-.379.4A.358.358,0,0,1,572,54.3h-1.825a.566.566,0,0,1-.379-.142.512.512,0,0,1-.142-.379,2.6,2.6,0,0,1,.569-1.351,4.49,4.49,0,0,1,1.73-1.3,6.665,6.665,0,0,1,2.844-.545,5.647,5.647,0,0,1,4.076,1.256,4.41,4.41,0,0,1,1.28,3.294v7.442a.549.549,0,0,1-.166.4.5.5,0,0,1-.4.166h-1.92a.566.566,0,0,1-.569-.569v-.924A3.944,3.944,0,0,1,575.6,62.9,5.273,5.273,0,0,1,573.23,63.373Zm.806-2.252a2.845,2.845,0,0,0,2.133-.853A3.43,3.43,0,0,0,577,57.78v-.5l-2.37.379a5.272,5.272,0,0,0-2.086.687,1.384,1.384,0,0,0-.687,1.161,1.349,1.349,0,0,0,.64,1.185A2.714,2.714,0,0,0,574.035,61.122Z" transform="translate(-433.919 -38.579)"/>
  <path id="Path_208" data-name="Path 208" d="M627.14,68.4a.486.486,0,0,1-.474-.474.75.75,0,0,1,.095-.379l1.849-4.384-4.551-10.736a.9.9,0,0,1-.095-.332.578.578,0,0,1,.166-.356.449.449,0,0,1,.355-.166h1.92a.655.655,0,0,1,.64.45l3.152,7.75,3.247-7.75a.655.655,0,0,1,.64-.45h1.9a.454.454,0,0,1,.332.142.426.426,0,0,1,.166.332.956.956,0,0,1-.095.379l-6.707,15.524a.7.7,0,0,1-.664.45Z" transform="translate(-475.965 -39.341)"/>
</svg>
