<svg xmlns="http://www.w3.org/2000/svg" width="47.1" height="47" viewBox="0 0 47.1 47">
  <g id="noun_Calendar__241926" data-name="noun_Calendar _241926" transform="translate(-0.5 -0.5)">
    <g id="Group_638" data-name="Group 638">
      <path id="Path_525" data-name="Path 525" d="M45.5,47.5H2.5a2.006,2.006,0,0,1-2-2V6a2.006,2.006,0,0,1,2-2H45.6a2.006,2.006,0,0,1,2,2V45.5A2.165,2.165,0,0,1,45.5,47.5ZM4.4,43.6H43.6V8H4.4Z"/>
    </g>
    <g id="Group_641" data-name="Group 641">
      <g id="Group_639" data-name="Group 639">
        <path id="Path_526" data-name="Path 526" d="M10.1,11.2a2.006,2.006,0,0,1-2-2V2.5a2,2,0,0,1,4,0V9.3A1.988,1.988,0,0,1,10.1,11.2Z"/>
      </g>
      <g id="Group_640" data-name="Group 640">
        <path id="Path_527" data-name="Path 527" d="M37.9,11.2a2.006,2.006,0,0,1-2-2V2.5a2,2,0,0,1,4,0V9.3A1.988,1.988,0,0,1,37.9,11.2Z"/>
      </g>
    </g>
    <g id="Group_650" data-name="Group 650">
      <g id="Group_645" data-name="Group 645">
        <g id="Group_642" data-name="Group 642">
          <path id="Path_528" data-name="Path 528" d="M13.1,20.6a2.006,2.006,0,0,1-2-2V18a2,2,0,0,1,4,0v.6A2.006,2.006,0,0,1,13.1,20.6Z"/>
        </g>
        <g id="Group_643" data-name="Group 643">
          <path id="Path_529" data-name="Path 529" d="M24,20.6a2.006,2.006,0,0,1-2-2V18a2,2,0,0,1,4,0v.6A2.006,2.006,0,0,1,24,20.6Z"/>
        </g>
        <g id="Group_644" data-name="Group 644">
          <path id="Path_530" data-name="Path 530" d="M34.9,20.6a2.006,2.006,0,0,1-2-2V18a2,2,0,0,1,4,0v.6A2.006,2.006,0,0,1,34.9,20.6Z"/>
        </g>
      </g>
      <g id="Group_649" data-name="Group 649">
        <g id="Group_646" data-name="Group 646">
          <path id="Path_531" data-name="Path 531" d="M13.1,35.4a2.006,2.006,0,0,1-2-2v-.6a2,2,0,1,1,4,0v.6A1.944,1.944,0,0,1,13.1,35.4Z"/>
        </g>
        <g id="Group_647" data-name="Group 647">
          <path id="Path_532" data-name="Path 532" d="M24,35.4a2.006,2.006,0,0,1-2-2v-.6a2,2,0,1,1,4,0v.6A1.944,1.944,0,0,1,24,35.4Z"/>
        </g>
        <g id="Group_648" data-name="Group 648">
          <path id="Path_533" data-name="Path 533" d="M34.9,35.4a2.006,2.006,0,0,1-2-2v-.6a2,2,0,1,1,4,0v.6A1.944,1.944,0,0,1,34.9,35.4Z"/>
        </g>
      </g>
    </g>
  </g>
</svg>
