<svg xmlns="http://www.w3.org/2000/svg" width="130.763" height="64.728" viewBox="0 0 130.763 64.728">
  <g id="Group_685" data-name="Group 685" transform="translate(-1435.767 -29.136)">
    <rect id="Rectangle_694" data-name="Rectangle 694" width="130.763" height="64.728" rx="32.364" transform="translate(1435.767 29.136)" fill="#ebeded" opacity="0.998"/>
    <g id="Group_516" data-name="Group 516" transform="translate(-5748.683 -5212.133)">
      <path id="Line_17" data-name="Line 17" d="M0,26.531a1.5,1.5,0,0,1-1.5-1.5V0A1.5,1.5,0,0,1,0-1.5,1.5,1.5,0,0,1,1.5,0V25.031A1.5,1.5,0,0,1,0,26.531Z" transform="translate(7216.498 5282.457) rotate(-90)" fill="#d5d5d5"/>
      <path id="Line_16" data-name="Line 16" d="M0,26.531a1.5,1.5,0,0,1-1.5-1.5V0A1.5,1.5,0,0,1,0-1.5,1.5,1.5,0,0,1,1.5,0V25.031A1.5,1.5,0,0,1,0,26.531Z" transform="translate(7216.498 5273.356) rotate(-90)" fill="#d5d5d5"/>
      <path id="Line_15" data-name="Line 15" d="M0,26.531a1.5,1.5,0,0,1-1.5-1.5V0A1.5,1.5,0,0,1,0-1.5,1.5,1.5,0,0,1,1.5,0V25.031A1.5,1.5,0,0,1,0,26.531Z" transform="translate(7216.498 5264.252) rotate(-90)" fill="#d5d5d5"/>
    </g>
  </g>
</svg>
