<svg xmlns="http://www.w3.org/2000/svg" width="24.683" height="24.697" viewBox="0 0 24.683 24.697">
  <path id="Path_210" data-name="Path 210" d="M260.227,103.33h1.445l.183.042c.755.141,1.529.22,2.263.433a10.809,10.809,0,0,1,6.222,15.665c-.232.394-.486.769-.734,1.158.053.058.1.109.153.16q2.173,2.175,4.346,4.344a2.389,2.389,0,0,1,.727,1.107v.482a1.663,1.663,0,0,1-.781,1.075c-.167.088-.345.153-.519.232h-.484a2.871,2.871,0,0,1-1.242-.864c-1.39-1.4-2.792-2.8-4.188-4.193-.06-.06-.123-.118-.176-.169-.405.257-.778.528-1.179.744a10.584,10.584,0,0,1-10.939-.178,10.273,10.273,0,0,1-4.99-7.244c-.079-.415-.125-.839-.185-1.256v-1.448c.018-.141.039-.283.056-.424a10.642,10.642,0,0,1,3.012-6.428,10.468,10.468,0,0,1,5.75-3.037C259.382,103.441,259.808,103.39,260.227,103.33Zm-6.992,10.788a7.645,7.645,0,1,0,2.244-5.469A7.714,7.714,0,0,0,253.236,114.118Z" transform="translate(-250.15 -103.33)" fill="#fff"/>
</svg>
