<svg xmlns="http://www.w3.org/2000/svg" width="47.1" height="47" viewBox="0 0 47.1 47">
  <g id="Group_660" data-name="Group 660" transform="translate(-1084.461 -459)">
    <g id="noun_Calendar__241926" data-name="noun_Calendar _241926" transform="translate(1083.961 458.5)">
      <g id="Group_638" data-name="Group 638">
        <path id="Path_525" data-name="Path 525" d="M45.5,47.5H2.5a2.006,2.006,0,0,1-2-2V6a2.006,2.006,0,0,1,2-2H45.6a2.006,2.006,0,0,1,2,2V45.5A2.165,2.165,0,0,1,45.5,47.5ZM4.4,43.6H43.6V8H4.4Z"/>
      </g>
      <g id="Group_641" data-name="Group 641">
        <g id="Group_639" data-name="Group 639">
          <path id="Path_526" data-name="Path 526" d="M10.1,11.2a2.006,2.006,0,0,1-2-2V2.5a2,2,0,0,1,4,0V9.3A1.988,1.988,0,0,1,10.1,11.2Z"/>
        </g>
        <g id="Group_640" data-name="Group 640">
          <path id="Path_527" data-name="Path 527" d="M37.9,11.2a2.006,2.006,0,0,1-2-2V2.5a2,2,0,0,1,4,0V9.3A1.988,1.988,0,0,1,37.9,11.2Z"/>
        </g>
      </g>
    </g>
    <g id="Group_656" data-name="Group 656" transform="translate(1073.381 -506.75)">
      <path id="Path_534" data-name="Path 534" d="M42.38,984.339a1.942,1.942,0,0,0-1.334.582L32.168,993.8l-4.075-3.2a1.941,1.941,0,1,0-2.4,3.044l5.434,4.269a1.941,1.941,0,0,0,2.571-.146l10.091-10.091a1.941,1.941,0,0,0-1.407-3.335Z"/>
    </g>
  </g>
</svg>
